<svg xmlns="http://www.w3.org/2000/svg" xmlns:xlink="http://www.w3.org/1999/xlink" width="320" zoomAndPan="magnify" viewBox="0 0 240 74.999997" height="100" preserveAspectRatio="xMidYMid meet" version="1.0"><defs><g/><clipPath id="id1"><path d="M 0 0 L 56 0 L 56 75 L 0 75 Z M 0 0 " clip-rule="nonzero"/></clipPath><clipPath id="id2"><path d="M -85.367188 67.910156 L -5.535156 -69.597656 L 55.433594 -34.199219 L -24.394531 103.304688 Z M -85.367188 67.910156 " clip-rule="nonzero"/></clipPath><clipPath id="id3"><path d="M 180 0 L 240 0 L 240 75 L 180 75 Z M 180 0 " clip-rule="nonzero"/></clipPath><clipPath id="id4"><path d="M 180.480469 108.957031 L 260.3125 -28.550781 L 321.28125 6.847656 L 241.453125 144.355469 Z M 180.480469 108.957031 " clip-rule="nonzero"/></clipPath></defs><rect x="-24" width="288" fill="#ffffff" y="-7.5" height="89.999996" fill-opacity="1"/><rect x="-24" width="288" fill="#ffffff" y="-7.5" height="89.999996" fill-opacity="1"/><rect x="-24" width="288" fill="#000000" y="-7.5" height="89.999996" fill-opacity="1"/><g fill="#ffffff" fill-opacity="1"><g transform="translate(53.1825, 49.874995)"><g><path d="M 0.371094 0 L 10.25 -27.191406 L 15.132812 -27.191406 L 13.46875 0 L 9.582031 0 L 9.988281 -5.550781 L 6.140625 -5.550781 L 4.253906 0 Z M 11.023438 -18.351562 L 11.0625 -19.054688 L 10.839844 -19.054688 L 10.582031 -18.351562 L 7.621094 -9.765625 L 10.359375 -9.765625 Z M 11.023438 -18.351562 "/></g></g></g><g fill="#ffffff" fill-opacity="1"><g transform="translate(67.019024, 49.874995)"><g><path d="M 17.871094 -27.191406 L 13.28125 -5.585938 C 12.984375 -4.476562 12.542969 -3.476562 11.988281 -2.625 C 11.433594 -1.886719 10.804688 -1.183594 9.953125 -0.628906 C 9.0625 0 7.992188 0.296875 6.695312 0.296875 C 5.402344 0.296875 4.441406 0 3.773438 -0.628906 C 3.144531 -1.183594 2.8125 -1.886719 2.664062 -2.625 C 2.40625 -3.476562 2.40625 -4.441406 2.625 -5.585938 L 7.214844 -27.191406 L 11.210938 -27.191406 L 6.621094 -5.585938 C 6.4375 -4.882812 6.511719 -4.292969 6.808594 -3.882812 C 6.957031 -3.699219 7.175781 -3.589844 7.511719 -3.589844 C 8.214844 -3.589844 8.65625 -4.03125 8.917969 -4.585938 C 9.027344 -4.808594 9.175781 -5.144531 9.285156 -5.585938 L 13.875 -27.191406 Z M 17.871094 -27.191406 "/></g></g></g><g fill="#ffffff" fill-opacity="1"><g transform="translate(80.559581, 49.874995)"><g><path d="M 4.957031 -23.085938 L 5.84375 -27.191406 L 17.390625 -27.191406 L 16.5 -23.085938 L 12.726562 -23.085938 L 7.84375 0 L 3.847656 0 L 8.730469 -23.085938 Z M 4.957031 -23.085938 "/></g></g></g><g fill="#ffffff" fill-opacity="1"><g transform="translate(92.250338, 49.874995)"><g><path d="M 13.058594 -5.585938 C 12.765625 -4.476562 12.320312 -3.476562 11.765625 -2.625 C 11.210938 -1.886719 10.582031 -1.183594 9.730469 -0.628906 C 8.84375 0 7.769531 0.296875 6.472656 0.296875 C 5.179688 0.296875 4.21875 0 3.550781 -0.628906 C 2.921875 -1.183594 2.589844 -1.886719 2.441406 -2.625 C 2.183594 -3.476562 2.183594 -4.441406 2.40625 -5.585938 L 5.808594 -21.605469 C 6.066406 -22.679688 6.472656 -23.640625 7.066406 -24.53125 C 7.621094 -25.269531 8.214844 -26.007812 9.0625 -26.5625 C 9.914062 -27.121094 11.023438 -27.488281 12.355469 -27.488281 C 13.6875 -27.488281 14.613281 -27.121094 15.242188 -26.5625 C 15.871094 -26.007812 16.242188 -25.269531 16.390625 -24.53125 C 16.648438 -23.714844 16.648438 -22.753906 16.464844 -21.605469 Z M 12.46875 -21.605469 C 12.617188 -22.347656 12.542969 -22.902344 12.28125 -23.308594 C 12.136719 -23.492188 11.875 -23.605469 11.542969 -23.605469 C 10.839844 -23.605469 10.394531 -23.085938 10.136719 -22.605469 C 9.988281 -22.308594 9.878906 -21.976562 9.804688 -21.605469 L 6.402344 -5.585938 C 6.214844 -4.882812 6.289062 -4.292969 6.585938 -3.882812 C 6.734375 -3.699219 6.957031 -3.589844 7.289062 -3.589844 C 7.992188 -3.589844 8.433594 -4.03125 8.695312 -4.585938 C 8.804688 -4.808594 8.953125 -5.144531 9.0625 -5.585938 Z M 12.46875 -21.605469 "/></g></g></g><g fill="#ffffff" fill-opacity="1"><g transform="translate(105.346944, 49.874995)"><g><path d="M 8.101562 0 L 9.175781 -17.09375 L 9.25 -18.238281 L 9.027344 -18.238281 L 5.179688 0 L 1.480469 0 L 7.25 -27.191406 L 12.136719 -27.191406 L 11.839844 -14.761719 L 11.726562 -13.320312 L 11.800781 -13.320312 L 12.28125 -14.761719 L 17.316406 -27.191406 L 22.199219 -27.191406 L 16.425781 0 L 12.726562 0 L 16.574219 -18.238281 L 16.351562 -18.238281 L 15.984375 -17.09375 L 9.804688 0 Z M 8.101562 0 "/></g></g></g><g fill="#ffffff" fill-opacity="1"><g transform="translate(123.253044, 49.874995)"><g><path d="M 13.058594 -5.585938 C 12.765625 -4.476562 12.320312 -3.476562 11.765625 -2.625 C 11.210938 -1.886719 10.582031 -1.183594 9.730469 -0.628906 C 8.84375 0 7.769531 0.296875 6.472656 0.296875 C 5.179688 0.296875 4.21875 0 3.550781 -0.628906 C 2.921875 -1.183594 2.589844 -1.886719 2.441406 -2.625 C 2.183594 -3.476562 2.183594 -4.441406 2.40625 -5.585938 L 5.808594 -21.605469 C 6.066406 -22.679688 6.472656 -23.640625 7.066406 -24.53125 C 7.621094 -25.269531 8.214844 -26.007812 9.0625 -26.5625 C 9.914062 -27.121094 11.023438 -27.488281 12.355469 -27.488281 C 13.6875 -27.488281 14.613281 -27.121094 15.242188 -26.5625 C 15.871094 -26.007812 16.242188 -25.269531 16.390625 -24.53125 C 16.648438 -23.714844 16.648438 -22.753906 16.464844 -21.605469 Z M 12.46875 -21.605469 C 12.617188 -22.347656 12.542969 -22.902344 12.28125 -23.308594 C 12.136719 -23.492188 11.875 -23.605469 11.542969 -23.605469 C 10.839844 -23.605469 10.394531 -23.085938 10.136719 -22.605469 C 9.988281 -22.308594 9.878906 -21.976562 9.804688 -21.605469 L 6.402344 -5.585938 C 6.214844 -4.882812 6.289062 -4.292969 6.585938 -3.882812 C 6.734375 -3.699219 6.957031 -3.589844 7.289062 -3.589844 C 7.992188 -3.589844 8.433594 -4.03125 8.695312 -4.585938 C 8.804688 -4.808594 8.953125 -5.144531 9.0625 -5.585938 Z M 12.46875 -21.605469 "/></g></g></g><g fill="#ffffff" fill-opacity="1"><g transform="translate(136.34965, 49.874995)"><g><path d="M 4.957031 -23.085938 L 5.84375 -27.191406 L 17.390625 -27.191406 L 16.5 -23.085938 L 12.726562 -23.085938 L 7.84375 0 L 3.847656 0 L 8.730469 -23.085938 Z M 4.957031 -23.085938 "/></g></g></g><g fill="#ffffff" fill-opacity="1"><g transform="translate(148.040407, 49.874995)"><g><path d="M 7.25 -27.191406 L 11.246094 -27.191406 L 5.476562 0 L 1.480469 0 Z M 7.25 -27.191406 "/></g></g></g><g fill="#ffffff" fill-opacity="1"><g transform="translate(154.995668, 49.874995)"><g><path d="M 14.503906 -27.191406 L 18.386719 -27.191406 L 8.472656 0 L 4.476562 0 L 6.105469 -27.191406 L 9.988281 -27.191406 L 8.804688 -12.246094 L 8.695312 -11.097656 L 8.917969 -11.097656 L 9.324219 -12.246094 Z M 14.503906 -27.191406 "/></g></g></g><g fill="#ffffff" fill-opacity="1"><g transform="translate(167.94429, 49.874995)"><g><path d="M 7.25 -27.191406 L 16.390625 -27.191406 L 15.5 -23.085938 L 10.359375 -23.085938 L 8.84375 -15.945312 L 12.542969 -15.945312 L 11.617188 -11.582031 L 7.917969 -11.582031 L 6.328125 -4.105469 L 11.46875 -4.105469 L 10.617188 0 L 1.480469 0 Z M 7.25 -27.191406 "/></g></g></g><g clip-path="url(#id1)"><g clip-path="url(#id2)"><path fill="#f17105" d="M -85.367188 67.910156 L -5.535156 -69.597656 L 55.433594 -34.199219 L -24.394531 103.304688 Z M -85.367188 67.910156 " fill-opacity="1" fill-rule="nonzero"/></g></g><g clip-path="url(#id3)"><g clip-path="url(#id4)"><path fill="#f17105" d="M 180.480469 108.957031 L 260.3125 -28.550781 L 321.28125 6.847656 L 241.453125 144.355469 Z M 180.480469 108.957031 " fill-opacity="1" fill-rule="nonzero"/></g></g></svg>