<svg xmlns="http://www.w3.org/2000/svg" xmlns:xlink="http://www.w3.org/1999/xlink" width="500" zoomAndPan="magnify" viewBox="0 0 375 374.999991" height="500" preserveAspectRatio="xMidYMid meet" version="1.0"><defs><g/><clipPath id="id1"><path d="M 90.125 146.035156 L 283 146.035156 L 283 174 L 90.125 174 Z M 90.125 146.035156 " clip-rule="nonzero"/></clipPath><clipPath id="id2"><path d="M 220 170 L 284.867188 170 L 284.867188 185 L 220 185 Z M 220 170 " clip-rule="nonzero"/></clipPath></defs><rect x="-37.5" width="450" fill="#ffffff" y="-37.499999" height="449.999989" fill-opacity="1"/><rect x="-37.5" width="450" fill="#ffffff" y="-37.499999" height="449.999989" fill-opacity="1"/><rect x="-37.5" width="450" fill="#000000" y="-37.499999" height="449.999989" fill-opacity="1"/><g clip-path="url(#id1)"><path fill="#f7f8fd" d="M 267.195312 165.621094 C 264.796875 165.171875 262.417969 164.578125 260.078125 163.855469 C 257.742188 163.121094 255.429688 162.285156 253.148438 161.359375 C 250.863281 160.433594 248.59375 159.441406 246.320312 158.414062 L 239.441406 155.28125 C 237.121094 154.230469 234.757812 153.199219 232.324219 152.21875 C 231.710938 151.976562 231.105469 151.730469 230.484375 151.5 L 229.554688 151.148438 L 228.617188 150.804688 C 227.992188 150.574219 227.351562 150.363281 226.71875 150.144531 C 226.398438 150.035156 226.074219 149.933594 225.753906 149.828125 C 225.433594 149.726562 225.113281 149.617188 224.785156 149.519531 C 224.132812 149.324219 223.484375 149.125 222.820312 148.945312 C 222.488281 148.851562 222.160156 148.757812 221.824219 148.671875 L 220.820312 148.421875 C 220.152344 148.253906 219.484375 148.082031 218.804688 147.945312 L 217.789062 147.726562 C 217.449219 147.65625 217.109375 147.578125 216.769531 147.519531 L 214.714844 147.152344 L 212.648438 146.847656 C 212.472656 146.824219 212.300781 146.792969 212.128906 146.773438 L 211.609375 146.714844 L 210.570312 146.589844 C 210.222656 146.554688 209.878906 146.503906 209.53125 146.476562 L 208.488281 146.386719 C 205.707031 146.144531 202.914062 146.03125 200.136719 146.058594 C 197.355469 146.085938 194.589844 146.222656 191.851562 146.46875 C 186.367188 146.960938 181.003906 147.882812 175.789062 149.078125 C 170.582031 150.289062 165.515625 151.78125 160.613281 153.492188 C 158.164062 154.347656 155.742188 155.246094 153.371094 156.210938 C 150.996094 157.167969 148.660156 158.167969 146.363281 159.21875 C 151.28125 157.582031 156.234375 156.03125 161.28125 154.703125 C 166.316406 153.359375 171.433594 152.222656 176.601562 151.335938 C 179.1875 150.894531 181.789062 150.539062 184.394531 150.246094 C 185.699219 150.09375 187.003906 149.984375 188.308594 149.871094 L 190.269531 149.734375 C 190.921875 149.695312 191.578125 149.671875 192.230469 149.640625 C 194.84375 149.53125 197.457031 149.507812 200.050781 149.59375 L 201.992188 149.683594 C 202.640625 149.722656 203.285156 149.777344 203.925781 149.820312 L 204.410156 149.855469 L 205.851562 149.996094 C 206.171875 150.027344 206.492188 150.054688 206.8125 150.089844 L 208.71875 150.332031 C 209.035156 150.367188 209.347656 150.425781 209.664062 150.472656 L 210.609375 150.617188 L 211.082031 150.691406 C 211.238281 150.714844 211.394531 150.746094 211.546875 150.773438 L 213.414062 151.121094 L 215.257812 151.523438 C 215.570312 151.585938 215.871094 151.671875 216.171875 151.746094 L 217.082031 151.972656 C 217.691406 152.113281 218.285156 152.292969 218.882812 152.460938 L 219.777344 152.714844 C 220.074219 152.804688 220.367188 152.898438 220.660156 152.992188 C 221.25 153.171875 221.832031 153.375 222.414062 153.570312 C 227.074219 155.175781 231.53125 157.226562 236 159.382812 C 240.472656 161.539062 244.96875 163.8125 249.796875 165.863281 C 250.71875 166.253906 251.65625 166.636719 252.605469 167.007812 C 249.746094 167.226562 246.878906 167.390625 244.003906 167.511719 L 241.273438 167.609375 L 238.539062 167.675781 C 237.628906 167.703125 236.714844 167.703125 235.800781 167.714844 L 234.429688 167.730469 C 233.972656 167.734375 233.515625 167.730469 233.0625 167.730469 C 229.40625 167.746094 225.742188 167.671875 222.078125 167.5625 C 218.414062 167.457031 214.746094 167.285156 211.074219 167.082031 C 207.402344 166.878906 203.726562 166.644531 200.050781 166.375 C 192.699219 165.851562 185.335938 165.21875 177.953125 164.597656 C 170.566406 163.976562 163.160156 163.359375 155.726562 162.859375 L 152.9375 162.675781 C 152.007812 162.613281 151.074219 162.554688 150.144531 162.5 C 148.28125 162.390625 146.410156 162.296875 144.539062 162.210938 C 143.601562 162.167969 142.664062 162.136719 141.726562 162.097656 L 138.910156 162.007812 C 137.96875 161.992188 137.03125 161.96875 136.085938 161.960938 L 134.675781 161.953125 C 134.203125 161.945312 133.734375 161.945312 133.261719 161.949219 C 132.320312 161.957031 131.378906 161.953125 130.433594 161.976562 L 129.019531 162.003906 C 128.550781 162.015625 128.078125 162.03125 127.605469 162.050781 L 126.191406 162.105469 L 124.777344 162.179688 C 123.835938 162.21875 122.898438 162.292969 121.957031 162.359375 C 118.195312 162.628906 114.457031 163.082031 110.78125 163.722656 C 107.105469 164.378906 103.5 165.242188 100.042969 166.339844 C 96.585938 167.433594 93.265625 168.757812 90.199219 170.335938 C 96.824219 167.796875 103.972656 166.207031 111.214844 165.417969 C 118.472656 164.613281 125.828125 164.597656 133.144531 164.929688 C 133.601562 164.949219 134.058594 164.972656 134.519531 165 L 135.890625 165.078125 C 136.804688 165.128906 137.722656 165.199219 138.636719 165.257812 L 141.378906 165.460938 C 142.296875 165.535156 143.210938 165.609375 144.125 165.691406 C 145.957031 165.851562 147.785156 166.023438 149.617188 166.210938 C 151.449219 166.386719 153.285156 166.578125 155.117188 166.769531 C 162.453125 167.546875 169.785156 168.386719 177.144531 169.203125 C 191.859375 170.832031 206.695312 172.359375 221.746094 172.9375 C 229.265625 173.234375 236.832031 173.273438 244.40625 172.960938 C 248.191406 172.796875 251.976562 172.5625 255.75 172.210938 C 259.523438 171.851562 263.28125 171.398438 267.019531 170.839844 L 282.617188 168.507812 Z M 267.195312 165.621094 " fill-opacity="1" fill-rule="nonzero"/></g><g clip-path="url(#id2)"><path fill="#ff1616" d="M 225.808594 181.515625 C 231.621094 182.78125 237.515625 183.714844 243.441406 184.253906 C 250.875 184.933594 258.445312 185.03125 265.828125 183.84375 C 269.421875 183.265625 272.980469 182.371094 276.347656 180.980469 C 279.105469 179.84375 284.332031 177.992188 284.832031 174.574219 C 285.007812 173.363281 285.054688 171.53125 283.523438 170.585938 C 281.550781 169.367188 278.90625 170.59375 277.0625 171.292969 C 274.859375 172.128906 272.6875 173.015625 270.304688 173.664062 C 267.332031 174.472656 264.257812 175.148438 261.152344 175.746094 C 257.652344 176.421875 254.089844 177.027344 250.488281 177.484375 C 252.265625 177.777344 255.214844 178.171875 256.8125 178.371094 C 258.722656 178.605469 260.640625 178.816406 262.570312 178.980469 C 264.601562 179.15625 266.699219 179.289062 268.796875 179.355469 C 259.457031 181.222656 243.550781 182.859375 220.421875 180.214844 C 222.238281 180.679688 224.054688 181.132812 225.808594 181.515625 Z M 225.808594 181.515625 " fill-opacity="1" fill-rule="nonzero"/></g><g fill="#f7f8fd" fill-opacity="1"><g transform="translate(84.240714, 222.608349)"><g><path d="M 14.761719 -17.515625 C 14.714844 -17.636719 14.664062 -17.78125 14.617188 -17.875 C 14.234375 -19.121094 13.082031 -20.007812 11.765625 -20.007812 C 11.167969 -20.007812 10.589844 -19.839844 10.113281 -19.503906 C 9.96875 -19.433594 9.847656 -19.335938 9.753906 -19.265625 C 9.394531 -18.953125 9.035156 -18.378906 8.699219 -17.515625 L 2.011719 -0.910156 C 1.941406 -0.695312 1.917969 -0.480469 1.964844 -0.335938 C 1.988281 -0.191406 2.109375 0.0234375 2.492188 0.0234375 L 5.128906 0.0234375 C 5.441406 0.0234375 5.679688 -0.167969 5.800781 -0.480469 L 7.164062 -3.90625 L 12.414062 -3.90625 C 12.675781 -3.90625 12.914062 -4.027344 13.035156 -4.242188 C 13.179688 -4.433594 13.203125 -4.695312 13.132812 -4.9375 L 12.269531 -7.070312 C 12.148438 -7.355469 11.886719 -7.546875 11.574219 -7.546875 L 8.601562 -7.546875 L 11.667969 -15.3125 C 11.695312 -15.359375 11.71875 -15.382812 11.71875 -15.382812 L 11.8125 -15.382812 C 11.8125 -15.382812 11.8125 -15.382812 11.835938 -15.335938 L 17.78125 -0.503906 C 17.898438 -0.167969 18.140625 0.0234375 18.476562 0.0234375 L 21.039062 0.0234375 C 21.421875 0.0234375 21.519531 -0.214844 21.566406 -0.335938 C 21.613281 -0.480469 21.589844 -0.695312 21.496094 -0.910156 Z M 14.761719 -17.515625 "/></g></g></g><g fill="#f7f8fd" fill-opacity="1"><g transform="translate(107.762059, 222.608349)"><g><path d="M 18.476562 -19.746094 L 16.269531 -19.746094 C 16.054688 -19.746094 15.597656 -19.671875 15.597656 -18.929688 L 15.597656 -7.117188 C 15.597656 -6.398438 15.550781 -5.773438 15.480469 -5.320312 C 15.40625 -4.863281 15.265625 -4.503906 15.097656 -4.242188 C 14.90625 -4 14.6875 -3.835938 14.378906 -3.714844 C 14.066406 -3.617188 13.632812 -3.546875 13.132812 -3.546875 L 7.957031 -3.546875 C 7.453125 -3.546875 7.019531 -3.617188 6.710938 -3.714844 C 6.398438 -3.835938 6.183594 -4 5.992188 -4.242188 C 5.824219 -4.503906 5.679688 -4.863281 5.582031 -5.320312 C 5.511719 -5.773438 5.464844 -6.398438 5.464844 -7.117188 L 5.464844 -18.929688 C 5.464844 -19.671875 5.007812 -19.746094 4.792969 -19.746094 L 2.613281 -19.746094 C 2.394531 -19.746094 1.917969 -19.671875 1.917969 -18.929688 L 1.917969 -7.5 C 1.917969 -6.160156 2.011719 -5.007812 2.226562 -4.074219 C 2.445312 -3.113281 2.804688 -2.324219 3.28125 -1.726562 C 3.738281 -1.101562 4.386719 -0.671875 5.128906 -0.382812 C 5.871094 -0.121094 6.78125 0 7.835938 0 L 13.226562 0 C 14.28125 0 15.191406 -0.121094 15.933594 -0.382812 C 16.703125 -0.671875 17.324219 -1.101562 17.804688 -1.726562 C 18.285156 -2.324219 18.617188 -3.113281 18.835938 -4.074219 C 19.050781 -5.007812 19.144531 -6.160156 19.144531 -7.5 L 19.144531 -18.929688 C 19.144531 -19.671875 18.691406 -19.746094 18.476562 -19.746094 Z M 18.476562 -19.746094 "/></g></g></g><g fill="#f7f8fd" fill-opacity="1"><g transform="translate(128.816218, 222.608349)"><g><path d="M 18.476562 -19.746094 L 2.613281 -19.746094 C 2.394531 -19.746094 1.917969 -19.671875 1.917969 -18.929688 L 1.917969 -17.0625 C 1.917969 -16.269531 2.394531 -16.199219 2.613281 -16.199219 L 8.769531 -16.199219 L 8.769531 -0.816406 C 8.769531 -0.0703125 9.25 0 9.441406 0 L 11.644531 0 C 11.863281 0 12.316406 -0.0703125 12.316406 -0.816406 L 12.316406 -16.199219 L 18.476562 -16.199219 C 18.691406 -16.199219 19.171875 -16.269531 19.171875 -17.0625 L 19.171875 -18.929688 C 19.171875 -19.671875 18.691406 -19.746094 18.476562 -19.746094 Z M 18.476562 -19.746094 "/></g></g></g><g fill="#f7f8fd" fill-opacity="1"><g transform="translate(149.894331, 222.608349)"><g><path d="M 18.234375 -17.996094 C 17.757812 -18.59375 17.132812 -19.050781 16.367188 -19.335938 C 15.625 -19.601562 14.714844 -19.746094 13.660156 -19.746094 L 7.8125 -19.746094 C 6.757812 -19.746094 5.871094 -19.601562 5.128906 -19.335938 C 4.359375 -19.050781 3.738281 -18.59375 3.257812 -17.996094 C 2.804688 -17.398438 2.445312 -16.605469 2.226562 -15.648438 C 2.011719 -14.714844 1.917969 -13.585938 1.917969 -12.246094 L 1.917969 -7.5 C 1.917969 -6.160156 2.011719 -5.007812 2.226562 -4.074219 C 2.445312 -3.113281 2.804688 -2.324219 3.257812 -1.726562 C 3.738281 -1.101562 4.359375 -0.648438 5.128906 -0.382812 C 5.847656 -0.121094 6.757812 0.0234375 7.8125 0.0234375 L 13.660156 0.0234375 C 14.714844 0.0234375 15.625 -0.121094 16.367188 -0.382812 C 17.132812 -0.648438 17.757812 -1.101562 18.234375 -1.703125 C 18.714844 -2.324219 19.050781 -3.113281 19.265625 -4.074219 C 19.457031 -5.007812 19.578125 -6.160156 19.578125 -7.5 L 19.578125 -12.246094 C 19.578125 -13.5625 19.457031 -14.714844 19.265625 -15.648438 C 19.050781 -16.605469 18.714844 -17.398438 18.234375 -17.996094 Z M 16.007812 -12.652344 L 16.007812 -7.070312 C 16.007812 -6.375 15.984375 -5.773438 15.886719 -5.296875 C 15.816406 -4.863281 15.671875 -4.480469 15.480469 -4.242188 C 15.3125 -3.976562 15.074219 -3.808594 14.761719 -3.714844 C 14.449219 -3.59375 14.042969 -3.546875 13.539062 -3.546875 L 7.929688 -3.546875 C 7.429688 -3.546875 7.019531 -3.59375 6.710938 -3.714844 C 6.398438 -3.808594 6.160156 -3.976562 5.992188 -4.242188 C 5.800781 -4.480469 5.679688 -4.863281 5.582031 -5.296875 C 5.511719 -5.773438 5.464844 -6.375 5.464844 -7.070312 L 5.464844 -12.652344 C 5.464844 -13.347656 5.511719 -13.945312 5.582031 -14.425781 C 5.679688 -14.878906 5.800781 -15.238281 5.992188 -15.503906 C 6.160156 -15.742188 6.398438 -15.910156 6.710938 -16.03125 C 7.019531 -16.125 7.429688 -16.199219 7.929688 -16.199219 L 13.539062 -16.199219 C 14.042969 -16.199219 14.449219 -16.125 14.761719 -16.03125 C 15.074219 -15.910156 15.3125 -15.742188 15.480469 -15.503906 C 15.671875 -15.238281 15.816406 -14.878906 15.886719 -14.425781 C 15.984375 -13.945312 16.007812 -13.347656 16.007812 -12.652344 Z M 16.007812 -12.652344 "/></g></g></g><g fill="#f7f8fd" fill-opacity="1"><g transform="translate(171.379645, 222.608349)"><g><path d="M 21.925781 -19.746094 L 19.769531 -19.746094 C 19.433594 -19.746094 19.171875 -19.722656 18.929688 -19.648438 C 18.691406 -19.578125 18.476562 -19.457031 18.285156 -19.289062 C 18.117188 -19.097656 17.949219 -18.882812 17.804688 -18.59375 C 17.660156 -18.308594 17.539062 -17.949219 17.398438 -17.492188 L 13.15625 -6.902344 C 13.132812 -6.804688 13.109375 -6.804688 13.082031 -6.804688 L 12.84375 -6.804688 C 12.84375 -6.804688 12.796875 -6.804688 12.773438 -6.902344 L 8.554688 -17.492188 C 8.410156 -17.949219 8.265625 -18.308594 8.148438 -18.59375 C 8.003906 -18.882812 7.835938 -19.097656 7.667969 -19.289062 C 7.476562 -19.457031 7.238281 -19.578125 6.996094 -19.648438 C 6.757812 -19.722656 6.46875 -19.746094 6.160156 -19.746094 L 3.953125 -19.746094 C 3.140625 -19.746094 2.589844 -19.480469 2.300781 -18.976562 C 2.035156 -18.523438 1.917969 -17.757812 1.917969 -16.652344 L 1.917969 -0.816406 C 1.917969 -0.0703125 2.394531 0.0234375 2.613281 0.0234375 L 4.671875 0.0234375 C 4.886719 0.0234375 5.34375 -0.0703125 5.34375 -0.816406 L 5.34375 -15.214844 C 5.34375 -15.238281 5.34375 -15.265625 5.34375 -15.265625 L 5.464844 -15.265625 C 5.488281 -15.265625 5.511719 -15.265625 5.535156 -15.191406 L 9.632812 -5.054688 C 9.800781 -4.554688 9.96875 -4.121094 10.136719 -3.761719 C 10.328125 -3.402344 10.519531 -3.113281 10.710938 -2.875 C 10.949219 -2.636719 11.191406 -2.445312 11.476562 -2.347656 C 11.765625 -2.253906 12.078125 -2.203125 12.4375 -2.203125 L 13.417969 -2.203125 C 13.777344 -2.203125 14.113281 -2.253906 14.378906 -2.347656 C 14.664062 -2.445312 14.929688 -2.636719 15.144531 -2.875 C 15.335938 -3.113281 15.550781 -3.402344 15.71875 -3.761719 C 15.886719 -4.121094 16.054688 -4.554688 16.222656 -5.054688 L 20.34375 -15.214844 C 20.34375 -15.265625 20.367188 -15.265625 20.390625 -15.265625 L 20.511719 -15.265625 C 20.511719 -15.265625 20.511719 -15.238281 20.511719 -15.214844 L 20.511719 -0.816406 C 20.511719 -0.0703125 20.992188 0.0234375 21.183594 0.0234375 L 23.242188 0.0234375 C 23.460938 0.0234375 23.9375 -0.0703125 23.9375 -0.816406 L 23.9375 -16.652344 C 23.9375 -17.757812 23.820312 -18.523438 23.554688 -18.976562 C 23.269531 -19.480469 22.714844 -19.746094 21.925781 -19.746094 Z M 21.925781 -19.746094 "/></g></g></g><g fill="#f7f8fd" fill-opacity="1"><g transform="translate(197.224448, 222.608349)"><g><path d="M 18.234375 -17.996094 C 17.757812 -18.59375 17.132812 -19.050781 16.367188 -19.335938 C 15.625 -19.601562 14.714844 -19.746094 13.660156 -19.746094 L 7.8125 -19.746094 C 6.757812 -19.746094 5.871094 -19.601562 5.128906 -19.335938 C 4.359375 -19.050781 3.738281 -18.59375 3.257812 -17.996094 C 2.804688 -17.398438 2.445312 -16.605469 2.226562 -15.648438 C 2.011719 -14.714844 1.917969 -13.585938 1.917969 -12.246094 L 1.917969 -7.5 C 1.917969 -6.160156 2.011719 -5.007812 2.226562 -4.074219 C 2.445312 -3.113281 2.804688 -2.324219 3.257812 -1.726562 C 3.738281 -1.101562 4.359375 -0.648438 5.128906 -0.382812 C 5.847656 -0.121094 6.757812 0.0234375 7.8125 0.0234375 L 13.660156 0.0234375 C 14.714844 0.0234375 15.625 -0.121094 16.367188 -0.382812 C 17.132812 -0.648438 17.757812 -1.101562 18.234375 -1.703125 C 18.714844 -2.324219 19.050781 -3.113281 19.265625 -4.074219 C 19.457031 -5.007812 19.578125 -6.160156 19.578125 -7.5 L 19.578125 -12.246094 C 19.578125 -13.5625 19.457031 -14.714844 19.265625 -15.648438 C 19.050781 -16.605469 18.714844 -17.398438 18.234375 -17.996094 Z M 16.007812 -12.652344 L 16.007812 -7.070312 C 16.007812 -6.375 15.984375 -5.773438 15.886719 -5.296875 C 15.816406 -4.863281 15.671875 -4.480469 15.480469 -4.242188 C 15.3125 -3.976562 15.074219 -3.808594 14.761719 -3.714844 C 14.449219 -3.59375 14.042969 -3.546875 13.539062 -3.546875 L 7.929688 -3.546875 C 7.429688 -3.546875 7.019531 -3.59375 6.710938 -3.714844 C 6.398438 -3.808594 6.160156 -3.976562 5.992188 -4.242188 C 5.800781 -4.480469 5.679688 -4.863281 5.582031 -5.296875 C 5.511719 -5.773438 5.464844 -6.375 5.464844 -7.070312 L 5.464844 -12.652344 C 5.464844 -13.347656 5.511719 -13.945312 5.582031 -14.425781 C 5.679688 -14.878906 5.800781 -15.238281 5.992188 -15.503906 C 6.160156 -15.742188 6.398438 -15.910156 6.710938 -16.03125 C 7.019531 -16.125 7.429688 -16.199219 7.929688 -16.199219 L 13.539062 -16.199219 C 14.042969 -16.199219 14.449219 -16.125 14.761719 -16.03125 C 15.074219 -15.910156 15.3125 -15.742188 15.480469 -15.503906 C 15.671875 -15.238281 15.816406 -14.878906 15.886719 -14.425781 C 15.984375 -13.945312 16.007812 -13.347656 16.007812 -12.652344 Z M 16.007812 -12.652344 "/></g></g></g><g fill="#f7f8fd" fill-opacity="1"><g transform="translate(218.709768, 222.608349)"><g><path d="M 18.476562 -19.746094 L 2.613281 -19.746094 C 2.394531 -19.746094 1.917969 -19.671875 1.917969 -18.929688 L 1.917969 -17.0625 C 1.917969 -16.269531 2.394531 -16.199219 2.613281 -16.199219 L 8.769531 -16.199219 L 8.769531 -0.816406 C 8.769531 -0.0703125 9.25 0 9.441406 0 L 11.644531 0 C 11.863281 0 12.316406 -0.0703125 12.316406 -0.816406 L 12.316406 -16.199219 L 18.476562 -16.199219 C 18.691406 -16.199219 19.171875 -16.269531 19.171875 -17.0625 L 19.171875 -18.929688 C 19.171875 -19.671875 18.691406 -19.746094 18.476562 -19.746094 Z M 18.476562 -19.746094 "/></g></g></g><g fill="#f7f8fd" fill-opacity="1"><g transform="translate(239.787884, 222.608349)"><g><path d="M 4.792969 -19.746094 L 2.589844 -19.746094 C 2.394531 -19.746094 1.917969 -19.648438 1.917969 -18.90625 L 1.917969 -0.816406 C 1.917969 -0.0703125 2.394531 0.0234375 2.589844 0.0234375 L 4.792969 0.0234375 C 4.984375 0.0234375 5.464844 -0.0703125 5.464844 -0.816406 L 5.464844 -18.90625 C 5.464844 -19.648438 4.984375 -19.746094 4.792969 -19.746094 Z M 4.792969 -19.746094 "/></g></g></g><g fill="#f7f8fd" fill-opacity="1"><g transform="translate(247.164768, 222.608349)"><g><path d="M 21.015625 -20.007812 L 18.378906 -20.007812 C 18.066406 -20.007812 17.828125 -19.839844 17.683594 -19.503906 L 11.8125 -4.671875 C 11.8125 -4.625 11.789062 -4.625 11.789062 -4.625 L 11.695312 -4.601562 C 11.695312 -4.601562 11.695312 -4.625 11.667969 -4.671875 L 5.703125 -19.503906 C 5.605469 -19.839844 5.367188 -20.007812 5.03125 -20.007812 L 2.445312 -20.007812 C 2.085938 -20.007812 1.964844 -19.769531 1.941406 -19.671875 C 1.894531 -19.503906 1.917969 -19.3125 2.011719 -19.074219 L 8.722656 -2.492188 C 8.792969 -2.347656 8.84375 -2.226562 8.890625 -2.132812 C 9.25 -0.863281 10.421875 0.0234375 11.742188 0.0234375 C 12.339844 0.0234375 12.914062 -0.167969 13.394531 -0.503906 C 13.539062 -0.574219 13.660156 -0.648438 13.753906 -0.742188 C 14.113281 -1.054688 14.449219 -1.628906 14.808594 -2.492188 L 21.46875 -19.074219 C 21.566406 -19.3125 21.589844 -19.503906 21.542969 -19.671875 C 21.496094 -19.792969 21.375 -20.007812 21.015625 -20.007812 Z M 21.015625 -20.007812 "/></g></g></g><g fill="#f7f8fd" fill-opacity="1"><g transform="translate(270.638201, 222.608349)"><g><path d="M 16.320312 -4.289062 L 7.882812 -4.289062 C 7.378906 -4.289062 6.972656 -4.359375 6.636719 -4.457031 C 6.324219 -4.578125 6.109375 -4.746094 5.917969 -4.984375 C 5.726562 -5.246094 5.582031 -5.605469 5.511719 -6.0625 C 5.488281 -6.183594 5.488281 -6.351562 5.464844 -6.46875 C 5.464844 -6.46875 5.488281 -8.195312 5.511719 -8.195312 L 16.222656 -8.195312 C 16.414062 -8.195312 16.894531 -8.292969 16.894531 -9.035156 L 16.894531 -10.925781 C 16.894531 -11.667969 16.414062 -11.742188 16.222656 -11.742188 L 3.859375 -11.71875 C 3.164062 -11.667969 2.5625 -11.308594 2.226562 -10.710938 C 2.109375 -10.519531 2.011719 -10.328125 1.964844 -10.113281 L 1.917969 -7.09375 L 1.917969 -6.972656 C 1.941406 -5.847656 2.0625 -4.886719 2.226562 -4.097656 C 2.445312 -3.140625 2.804688 -2.347656 3.257812 -1.75 C 3.738281 -1.125 4.359375 -0.695312 5.128906 -0.429688 C 5.871094 -0.144531 6.757812 -0.0234375 7.8125 -0.0234375 L 16.320312 -0.0234375 C 16.535156 -0.0234375 17.011719 -0.0976562 17.011719 -0.839844 L 17.011719 -3.472656 C 17.011719 -4.21875 16.535156 -4.289062 16.320312 -4.289062 Z M 16.34375 -19.792969 L 2.5625 -19.792969 C 2.371094 -19.792969 1.917969 -19.695312 1.917969 -18.929688 L 1.917969 -17.0625 C 1.917969 -16.320312 2.371094 -16.246094 2.5625 -16.246094 L 16.34375 -16.222656 C 16.535156 -16.222656 17.011719 -16.320312 17.011719 -17.0625 L 17.011719 -18.953125 C 17.011719 -19.695312 16.535156 -19.792969 16.34375 -19.792969 Z M 16.34375 -19.792969 "/></g></g></g><g fill="#ff1616" fill-opacity="1"><g transform="translate(127.18729, 237.76166)"><g><path d="M 5.914062 -3.609375 L 6.714844 -3.609375 C 6.8125 -3.609375 6.894531 -3.695312 6.894531 -3.789062 L 6.894531 -4.519531 C 6.894531 -4.640625 6.847656 -4.75 6.765625 -4.832031 L 5.707031 -5.914062 C 5.613281 -6.007812 5.503906 -6.054688 5.347656 -6.054688 L 1.929688 -6.054688 C 1.785156 -6.054688 1.691406 -6.019531 1.582031 -5.914062 L 0.503906 -4.832031 C 0.433594 -4.761719 0.359375 -4.640625 0.359375 -4.519531 L 0.359375 -1.476562 C 0.359375 -1.355469 0.433594 -1.234375 0.503906 -1.164062 L 1.582031 -0.0820312 C 1.691406 0.0234375 1.785156 0.0585938 1.929688 0.0585938 L 5.347656 0.0585938 C 5.503906 0.0585938 5.613281 0.0117188 5.707031 -0.0820312 L 6.765625 -1.164062 C 6.847656 -1.246094 6.894531 -1.355469 6.894531 -1.476562 L 6.894531 -2.207031 C 6.894531 -2.300781 6.8125 -2.386719 6.714844 -2.386719 L 5.914062 -2.386719 C 5.816406 -2.386719 5.730469 -2.300781 5.730469 -2.207031 L 5.730469 -1.785156 C 5.730469 -1.703125 5.71875 -1.644531 5.648438 -1.582031 L 5.265625 -1.222656 C 5.203125 -1.164062 5.15625 -1.128906 5.074219 -1.128906 L 2.265625 -1.128906 C 2.207031 -1.128906 2.160156 -1.152344 2.085938 -1.222656 L 1.703125 -1.582031 C 1.644531 -1.644531 1.617188 -1.703125 1.617188 -1.785156 L 1.617188 -4.210938 C 1.617188 -4.292969 1.644531 -4.351562 1.703125 -4.414062 L 2.085938 -4.773438 C 2.160156 -4.84375 2.207031 -4.867188 2.265625 -4.867188 L 5.074219 -4.867188 C 5.15625 -4.867188 5.203125 -4.832031 5.265625 -4.773438 L 5.648438 -4.414062 C 5.71875 -4.351562 5.730469 -4.292969 5.730469 -4.210938 L 5.730469 -3.789062 C 5.730469 -3.695312 5.816406 -3.609375 5.914062 -3.609375 Z M 5.914062 -3.609375 "/></g></g></g><g fill="#ff1616" fill-opacity="1"><g transform="translate(136.84015, 237.76166)"><g><path d="M 6.765625 -4.773438 L 5.707031 -5.851562 C 5.613281 -5.949219 5.503906 -5.996094 5.347656 -5.996094 L 1.90625 -5.996094 C 1.75 -5.996094 1.644531 -5.949219 1.546875 -5.851562 L 0.492188 -4.773438 C 0.40625 -4.6875 0.359375 -4.582031 0.359375 -4.460938 L 0.359375 -0.179688 C 0.359375 -0.0820312 0.445312 0 0.539062 0 L 1.34375 0 C 1.4375 0 1.523438 -0.0820312 1.523438 -0.179688 L 1.523438 -1.964844 L 5.730469 -1.964844 L 5.730469 -0.179688 C 5.730469 -0.0820312 5.816406 0 5.914062 0 L 6.714844 0 C 6.8125 0 6.894531 -0.0820312 6.894531 -0.179688 L 6.894531 -4.460938 C 6.894531 -4.582031 6.847656 -4.6875 6.765625 -4.773438 Z M 1.523438 -3.011719 L 1.523438 -4.148438 C 1.523438 -4.234375 1.546875 -4.292969 1.605469 -4.351562 L 1.992188 -4.714844 L 2.0625 -4.773438 C 2.085938 -4.796875 2.121094 -4.808594 2.183594 -4.808594 L 5.074219 -4.808594 C 5.121094 -4.808594 5.15625 -4.796875 5.191406 -4.773438 L 5.265625 -4.714844 L 5.648438 -4.351562 C 5.707031 -4.292969 5.730469 -4.234375 5.730469 -4.148438 L 5.730469 -3.011719 Z M 1.523438 -3.011719 "/></g></g></g><g fill="#ff1616" fill-opacity="1"><g transform="translate(146.493011, 237.76166)"><g><path d="M 6.933594 -4.808594 L 5.851562 -5.863281 C 5.769531 -5.949219 5.660156 -5.996094 5.539062 -5.996094 L 0.539062 -5.996094 C 0.445312 -5.996094 0.359375 -5.914062 0.359375 -5.816406 L 0.359375 -0.179688 C 0.359375 -0.0820312 0.445312 0 0.539062 0 L 1.367188 0 C 1.464844 0 1.546875 -0.0820312 1.546875 -0.179688 L 1.546875 -1.320312 L 4.796875 -1.320312 L 5.539062 -0.109375 C 5.589844 -0.0351562 5.648438 0 5.71875 0 L 6.621094 0 C 6.765625 0 6.835938 -0.132812 6.765625 -0.25 L 5.949219 -1.558594 L 6.933594 -2.542969 C 7.003906 -2.613281 7.074219 -2.734375 7.074219 -2.855469 L 7.074219 -4.449219 C 7.074219 -4.605469 7.027344 -4.714844 6.933594 -4.808594 Z M 1.546875 -4.832031 L 5.15625 -4.832031 C 5.242188 -4.832031 5.300781 -4.808594 5.359375 -4.75 L 5.71875 -4.367188 L 5.78125 -4.292969 C 5.804688 -4.257812 5.816406 -4.222656 5.816406 -4.171875 L 5.816406 -3.167969 C 5.816406 -3.082031 5.792969 -3.023438 5.730469 -2.960938 L 5.347656 -2.601562 C 5.277344 -2.53125 5.230469 -2.507812 5.167969 -2.507812 L 1.546875 -2.507812 Z M 1.546875 -4.832031 "/></g></g></g><g fill="#ff1616" fill-opacity="1"><g transform="translate(156.325691, 237.76166)"><g/></g></g><g fill="#ff1616" fill-opacity="1"><g transform="translate(161.842612, 237.76166)"><g><path d="M 0.359375 -3.742188 C 0.359375 -3.585938 0.40625 -3.476562 0.503906 -3.382812 L 1.34375 -2.566406 C 1.425781 -2.496094 1.535156 -2.433594 1.65625 -2.433594 L 5.214844 -2.433594 C 5.300781 -2.433594 5.359375 -2.410156 5.421875 -2.351562 L 5.601562 -2.132812 C 5.625 -2.097656 5.636719 -2.0625 5.636719 -2.015625 L 5.636719 -1.726562 C 5.636719 -1.644531 5.613281 -1.582031 5.550781 -1.523438 L 5.289062 -1.28125 C 5.214844 -1.222656 5.167969 -1.1875 5.109375 -1.1875 L 0.742188 -1.1875 C 0.648438 -1.1875 0.5625 -1.101562 0.5625 -1.007812 L 0.5625 -0.179688 C 0.5625 -0.0820312 0.648438 0 0.742188 0 L 5.445312 0 C 5.589844 0 5.683594 -0.0351562 5.792969 -0.144531 L 6.75 -1.101562 C 6.824219 -1.175781 6.894531 -1.296875 6.894531 -1.414062 L 6.894531 -2.410156 C 6.894531 -2.566406 6.847656 -2.6875 6.75 -2.769531 L 6.03125 -3.464844 C 5.949219 -3.539062 5.839844 -3.597656 5.71875 -3.597656 L 2.039062 -3.597656 C 1.953125 -3.597656 1.894531 -3.621094 1.835938 -3.683594 L 1.65625 -3.898438 C 1.632812 -3.933594 1.617188 -3.96875 1.617188 -4.015625 L 1.617188 -4.269531 C 1.617188 -4.351562 1.644531 -4.414062 1.703125 -4.472656 L 1.964844 -4.714844 C 2.039062 -4.773438 2.085938 -4.808594 2.148438 -4.808594 L 6.390625 -4.808594 C 6.488281 -4.808594 6.570312 -4.894531 6.570312 -4.988281 L 6.570312 -5.816406 C 6.570312 -5.914062 6.488281 -5.996094 6.390625 -5.996094 L 1.8125 -5.996094 C 1.667969 -5.996094 1.570312 -5.960938 1.464844 -5.851562 L 0.503906 -4.894531 C 0.433594 -4.820312 0.359375 -4.699219 0.359375 -4.582031 Z M 0.359375 -3.742188 "/></g></g></g><g fill="#ff1616" fill-opacity="1"><g transform="translate(171.495474, 237.76166)"><g><path d="M 6.714844 -5.996094 L 5.816406 -5.996094 C 5.71875 -5.996094 5.636719 -5.914062 5.636719 -5.816406 L 5.636719 -3.667969 L 1.617188 -3.667969 L 1.617188 -5.816406 C 1.617188 -5.914062 1.535156 -5.996094 1.4375 -5.996094 L 0.539062 -5.996094 C 0.445312 -5.996094 0.359375 -5.914062 0.359375 -5.816406 L 0.359375 -0.179688 C 0.359375 -0.0820312 0.445312 0 0.539062 0 L 1.4375 0 C 1.535156 0 1.617188 -0.0820312 1.617188 -0.179688 L 1.617188 -2.484375 L 5.636719 -2.484375 L 5.636719 -0.179688 C 5.636719 -0.0820312 5.71875 0 5.816406 0 L 6.714844 0 C 6.8125 0 6.894531 -0.0820312 6.894531 -0.179688 L 6.894531 -5.816406 C 6.894531 -5.914062 6.8125 -5.996094 6.714844 -5.996094 Z M 6.714844 -5.996094 "/></g></g></g><g fill="#ff1616" fill-opacity="1"><g transform="translate(181.148336, 237.76166)"><g><path d="M 0.359375 -1.535156 C 0.359375 -1.414062 0.40625 -1.308594 0.492188 -1.222656 L 1.546875 -0.144531 C 1.644531 -0.046875 1.75 0 1.90625 0 L 5.347656 0 C 5.503906 0 5.613281 -0.046875 5.707031 -0.144531 L 6.765625 -1.222656 C 6.847656 -1.308594 6.894531 -1.414062 6.894531 -1.535156 L 6.894531 -4.460938 C 6.894531 -4.582031 6.847656 -4.6875 6.765625 -4.773438 L 5.707031 -5.851562 C 5.613281 -5.949219 5.503906 -5.996094 5.347656 -5.996094 L 1.90625 -5.996094 C 1.75 -5.996094 1.644531 -5.949219 1.546875 -5.851562 L 0.492188 -4.773438 C 0.40625 -4.6875 0.359375 -4.582031 0.359375 -4.460938 Z M 1.523438 -1.847656 L 1.523438 -4.148438 C 1.523438 -4.234375 1.546875 -4.292969 1.605469 -4.351562 L 1.992188 -4.714844 L 2.0625 -4.773438 C 2.085938 -4.796875 2.121094 -4.808594 2.183594 -4.808594 L 5.074219 -4.808594 C 5.121094 -4.808594 5.15625 -4.796875 5.191406 -4.773438 L 5.265625 -4.714844 L 5.648438 -4.351562 C 5.707031 -4.292969 5.730469 -4.234375 5.730469 -4.148438 L 5.730469 -1.847656 C 5.730469 -1.761719 5.707031 -1.703125 5.648438 -1.644531 L 5.265625 -1.28125 L 5.191406 -1.222656 C 5.15625 -1.199219 5.121094 -1.1875 5.074219 -1.1875 L 2.183594 -1.1875 C 2.121094 -1.1875 2.085938 -1.199219 2.0625 -1.222656 L 1.992188 -1.28125 L 1.605469 -1.644531 C 1.546875 -1.703125 1.523438 -1.761719 1.523438 -1.847656 Z M 1.523438 -1.847656 "/></g></g></g><g fill="#ff1616" fill-opacity="1"><g transform="translate(190.801198, 237.76166)"><g><path d="M 12.195312 -5.996094 L 11.394531 -5.996094 C 11.296875 -5.996094 11.214844 -5.914062 11.214844 -5.816406 L 11.214844 -1.992188 C 11.214844 -1.90625 11.1875 -1.835938 11.128906 -1.785156 L 10.53125 -1.222656 C 10.492188 -1.199219 10.457031 -1.1875 10.410156 -1.1875 L 7.878906 -1.1875 C 7.832031 -1.1875 7.796875 -1.199219 7.757812 -1.222656 L 7.183594 -1.761719 C 7.125 -1.8125 7.097656 -1.882812 7.097656 -1.964844 L 7.097656 -5.816406 C 7.097656 -5.914062 7.015625 -5.996094 6.917969 -5.996094 L 6.117188 -5.996094 C 6.019531 -5.996094 5.9375 -5.914062 5.9375 -5.816406 L 5.9375 -1.964844 C 5.9375 -1.882812 5.914062 -1.8125 5.851562 -1.761719 L 5.277344 -1.222656 C 5.242188 -1.199219 5.203125 -1.1875 5.15625 -1.1875 L 2.339844 -1.1875 C 2.289062 -1.1875 2.253906 -1.199219 2.21875 -1.222656 L 1.605469 -1.800781 C 1.546875 -1.859375 1.523438 -1.917969 1.523438 -2.003906 L 1.523438 -5.816406 C 1.523438 -5.914062 1.4375 -5.996094 1.34375 -5.996094 L 0.539062 -5.996094 C 0.445312 -5.996094 0.359375 -5.914062 0.359375 -5.816406 L 0.359375 -1.65625 C 0.359375 -1.535156 0.417969 -1.425781 0.492188 -1.34375 L 1.667969 -0.144531 C 1.761719 -0.046875 1.871094 0 2.027344 0 L 5.433594 0 C 5.589844 0 5.707031 -0.046875 5.792969 -0.144531 L 6.523438 -0.886719 L 7.242188 -0.144531 C 7.328125 -0.046875 7.449219 0 7.601562 0 L 10.710938 0 C 10.863281 0 10.972656 -0.046875 11.070312 -0.144531 L 12.246094 -1.34375 C 12.316406 -1.425781 12.375 -1.535156 12.375 -1.65625 L 12.375 -5.816406 C 12.375 -5.914062 12.292969 -5.996094 12.195312 -5.996094 Z M 12.195312 -5.996094 "/></g></g></g><g fill="#ff1616" fill-opacity="1"><g transform="translate(205.932678, 237.76166)"><g><path d="M 6.933594 -4.808594 L 5.851562 -5.863281 C 5.769531 -5.949219 5.660156 -5.996094 5.539062 -5.996094 L 0.539062 -5.996094 C 0.445312 -5.996094 0.359375 -5.914062 0.359375 -5.816406 L 0.359375 -0.179688 C 0.359375 -0.0820312 0.445312 0 0.539062 0 L 1.367188 0 C 1.464844 0 1.546875 -0.0820312 1.546875 -0.179688 L 1.546875 -1.320312 L 4.796875 -1.320312 L 5.539062 -0.109375 C 5.589844 -0.0351562 5.648438 0 5.71875 0 L 6.621094 0 C 6.765625 0 6.835938 -0.132812 6.765625 -0.25 L 5.949219 -1.558594 L 6.933594 -2.542969 C 7.003906 -2.613281 7.074219 -2.734375 7.074219 -2.855469 L 7.074219 -4.449219 C 7.074219 -4.605469 7.027344 -4.714844 6.933594 -4.808594 Z M 1.546875 -4.832031 L 5.15625 -4.832031 C 5.242188 -4.832031 5.300781 -4.808594 5.359375 -4.75 L 5.71875 -4.367188 L 5.78125 -4.292969 C 5.804688 -4.257812 5.816406 -4.222656 5.816406 -4.171875 L 5.816406 -3.167969 C 5.816406 -3.082031 5.792969 -3.023438 5.730469 -2.960938 L 5.347656 -2.601562 C 5.277344 -2.53125 5.230469 -2.507812 5.167969 -2.507812 L 1.546875 -2.507812 Z M 1.546875 -4.832031 "/></g></g></g><g fill="#ff1616" fill-opacity="1"><g transform="translate(215.765361, 237.76166)"><g><path d="M 0.359375 -1.535156 C 0.359375 -1.414062 0.40625 -1.308594 0.492188 -1.222656 L 1.546875 -0.144531 C 1.644531 -0.046875 1.75 0 1.90625 0 L 5.347656 0 C 5.503906 0 5.613281 -0.046875 5.707031 -0.144531 L 6.765625 -1.222656 C 6.847656 -1.308594 6.894531 -1.414062 6.894531 -1.535156 L 6.894531 -4.460938 C 6.894531 -4.582031 6.847656 -4.6875 6.765625 -4.773438 L 5.707031 -5.851562 C 5.613281 -5.949219 5.503906 -5.996094 5.347656 -5.996094 L 1.90625 -5.996094 C 1.75 -5.996094 1.644531 -5.949219 1.546875 -5.851562 L 0.492188 -4.773438 C 0.40625 -4.6875 0.359375 -4.582031 0.359375 -4.460938 Z M 1.523438 -1.847656 L 1.523438 -4.148438 C 1.523438 -4.234375 1.546875 -4.292969 1.605469 -4.351562 L 1.992188 -4.714844 L 2.0625 -4.773438 C 2.085938 -4.796875 2.121094 -4.808594 2.183594 -4.808594 L 5.074219 -4.808594 C 5.121094 -4.808594 5.15625 -4.796875 5.191406 -4.773438 L 5.265625 -4.714844 L 5.648438 -4.351562 C 5.707031 -4.292969 5.730469 -4.234375 5.730469 -4.148438 L 5.730469 -1.847656 C 5.730469 -1.761719 5.707031 -1.703125 5.648438 -1.644531 L 5.265625 -1.28125 L 5.191406 -1.222656 C 5.15625 -1.199219 5.121094 -1.1875 5.074219 -1.1875 L 2.183594 -1.1875 C 2.121094 -1.1875 2.085938 -1.199219 2.0625 -1.222656 L 1.992188 -1.28125 L 1.605469 -1.644531 C 1.546875 -1.703125 1.523438 -1.761719 1.523438 -1.847656 Z M 1.523438 -1.847656 "/></g></g></g><g fill="#ff1616" fill-opacity="1"><g transform="translate(225.418217, 237.76166)"><g><path d="M 0.359375 -1.535156 C 0.359375 -1.414062 0.40625 -1.308594 0.492188 -1.222656 L 1.546875 -0.144531 C 1.644531 -0.046875 1.75 0 1.90625 0 L 5.347656 0 C 5.503906 0 5.613281 -0.046875 5.707031 -0.144531 L 6.765625 -1.222656 C 6.847656 -1.308594 6.894531 -1.414062 6.894531 -1.535156 L 6.894531 -4.460938 C 6.894531 -4.582031 6.847656 -4.6875 6.765625 -4.773438 L 5.707031 -5.851562 C 5.613281 -5.949219 5.503906 -5.996094 5.347656 -5.996094 L 1.90625 -5.996094 C 1.75 -5.996094 1.644531 -5.949219 1.546875 -5.851562 L 0.492188 -4.773438 C 0.40625 -4.6875 0.359375 -4.582031 0.359375 -4.460938 Z M 1.523438 -1.847656 L 1.523438 -4.148438 C 1.523438 -4.234375 1.546875 -4.292969 1.605469 -4.351562 L 1.992188 -4.714844 L 2.0625 -4.773438 C 2.085938 -4.796875 2.121094 -4.808594 2.183594 -4.808594 L 5.074219 -4.808594 C 5.121094 -4.808594 5.15625 -4.796875 5.191406 -4.773438 L 5.265625 -4.714844 L 5.648438 -4.351562 C 5.707031 -4.292969 5.730469 -4.234375 5.730469 -4.148438 L 5.730469 -1.847656 C 5.730469 -1.761719 5.707031 -1.703125 5.648438 -1.644531 L 5.265625 -1.28125 L 5.191406 -1.222656 C 5.15625 -1.199219 5.121094 -1.1875 5.074219 -1.1875 L 2.183594 -1.1875 C 2.121094 -1.1875 2.085938 -1.199219 2.0625 -1.222656 L 1.992188 -1.28125 L 1.605469 -1.644531 C 1.546875 -1.703125 1.523438 -1.761719 1.523438 -1.847656 Z M 1.523438 -1.847656 "/></g></g></g><g fill="#ff1616" fill-opacity="1"><g transform="translate(235.071079, 237.76166)"><g><path d="M 12.246094 -4.652344 L 11.070312 -5.851562 C 10.972656 -5.949219 10.863281 -5.996094 10.710938 -5.996094 L 7.601562 -5.996094 C 7.449219 -5.996094 7.328125 -5.949219 7.242188 -5.851562 L 6.523438 -5.109375 L 5.792969 -5.851562 C 5.707031 -5.949219 5.589844 -5.996094 5.433594 -5.996094 L 2.027344 -5.996094 C 1.871094 -5.996094 1.761719 -5.949219 1.667969 -5.851562 L 0.492188 -4.652344 C 0.417969 -4.570312 0.359375 -4.460938 0.359375 -4.339844 L 0.359375 -0.179688 C 0.359375 -0.0820312 0.445312 0 0.539062 0 L 1.34375 0 C 1.4375 0 1.523438 -0.0820312 1.523438 -0.179688 L 1.523438 -3.96875 C 1.523438 -4.054688 1.546875 -4.113281 1.605469 -4.171875 L 2.21875 -4.773438 C 2.253906 -4.796875 2.289062 -4.808594 2.339844 -4.808594 L 5.15625 -4.808594 C 5.203125 -4.808594 5.242188 -4.796875 5.277344 -4.773438 L 5.851562 -4.234375 C 5.914062 -4.183594 5.9375 -4.113281 5.9375 -4.03125 L 5.9375 -0.179688 C 5.9375 -0.0820312 6.019531 0 6.117188 0 L 6.917969 0 C 7.015625 0 7.097656 -0.0820312 7.097656 -0.179688 L 7.097656 -4.03125 C 7.097656 -4.113281 7.125 -4.183594 7.183594 -4.234375 L 7.757812 -4.773438 C 7.796875 -4.796875 7.832031 -4.808594 7.878906 -4.808594 L 10.410156 -4.808594 C 10.457031 -4.808594 10.492188 -4.796875 10.53125 -4.773438 L 11.128906 -4.183594 C 11.1875 -4.136719 11.214844 -4.066406 11.214844 -3.980469 L 11.214844 -0.179688 C 11.214844 -0.0820312 11.296875 0 11.394531 0 L 12.195312 0 C 12.292969 0 12.375 -0.0820312 12.375 -0.179688 L 12.375 -4.339844 C 12.375 -4.460938 12.316406 -4.570312 12.246094 -4.652344 Z M 12.246094 -4.652344 "/></g></g></g></svg>